<svg width="26" height="37" viewBox="0 0 26 37" fill="none" xmlns="http://www.w3.org/2000/svg">
<path d="M0 37L4.5 0H22L26 37L13 32.5L0 37Z" fill="#F2BC57"/>
<path d="M12.8098 2.58541C12.8697 2.40115 13.1303 2.40115 13.1902 2.58541L14.3022 6.0077C14.329 6.09011 14.4057 6.1459 14.4924 6.1459H18.0908C18.2845 6.1459 18.3651 6.39382 18.2084 6.5077L15.2972 8.62279C15.2271 8.67372 15.1978 8.764 15.2245 8.8464L16.3365 12.2687C16.3964 12.453 16.1855 12.6062 16.0287 12.4923L13.1176 10.3772C13.0475 10.3263 12.9525 10.3263 12.8824 10.3772L9.97127 12.4923C9.81453 12.6062 9.60363 12.453 9.6635 12.2687L10.7755 8.8464C10.8022 8.764 10.7729 8.67372 10.7028 8.62279L7.79164 6.5077C7.6349 6.39382 7.71545 6.1459 7.9092 6.1459H11.5076C11.5943 6.1459 11.671 6.09011 11.6978 6.0077L12.8098 2.58541Z" fill="url(#paint0_linear_40_117)"/>
<path d="M5.46 24.48V23.62L8.82 18.8H10.2V23.49H11.13V24.48H10.2V26H9.08V24.48H5.46ZM9.13 19.96L6.77 23.49H9.13V19.96ZM12.6846 26.07C12.4779 26.07 12.3046 26 12.1646 25.86C12.0246 25.72 11.9546 25.5467 11.9546 25.34C11.9546 25.1333 12.0246 24.96 12.1646 24.82C12.3046 24.68 12.4779 24.61 12.6846 24.61C12.8846 24.61 13.0546 24.68 13.1946 24.82C13.3346 24.96 13.4046 25.1333 13.4046 25.34C13.4046 25.5467 13.3346 25.72 13.1946 25.86C13.0546 26 12.8846 26.07 12.6846 26.07ZM14.4667 20.51C14.5067 19.89 14.7434 19.4067 15.1767 19.06C15.6167 18.7133 16.1767 18.54 16.8567 18.54C17.3234 18.54 17.7267 18.6233 18.0667 18.79C18.4067 18.9567 18.6634 19.1833 18.8367 19.47C19.0101 19.7567 19.0967 20.08 19.0967 20.44C19.0967 20.8533 18.9867 21.2067 18.7667 21.5C18.5467 21.7933 18.2834 21.99 17.9767 22.09V22.13C18.3701 22.25 18.6767 22.47 18.8967 22.79C19.1167 23.1033 19.2267 23.5067 19.2267 24C19.2267 24.3933 19.1367 24.7433 18.9567 25.05C18.7767 25.3567 18.5101 25.6 18.1567 25.78C17.8034 25.9533 17.3801 26.04 16.8867 26.04C16.1667 26.04 15.5734 25.8567 15.1067 25.49C14.6467 25.1167 14.4001 24.5833 14.3667 23.89H15.4667C15.4934 24.2433 15.6301 24.5333 15.8767 24.76C16.1234 24.98 16.4567 25.09 16.8767 25.09C17.2834 25.09 17.5967 24.98 17.8167 24.76C18.0367 24.5333 18.1467 24.2433 18.1467 23.89C18.1467 23.4233 17.9967 23.0933 17.6967 22.9C17.4034 22.7 16.9501 22.6 16.3367 22.6H16.0767V21.66H16.3467C16.8867 21.6533 17.2967 21.5633 17.5767 21.39C17.8634 21.2167 18.0067 20.9433 18.0067 20.57C18.0067 20.25 17.9034 19.9967 17.6967 19.81C17.4901 19.6167 17.1967 19.52 16.8167 19.52C16.4434 19.52 16.1534 19.6167 15.9467 19.81C15.7401 19.9967 15.6167 20.23 15.5767 20.51H14.4667Z" fill="#3F3F3F"/>
<defs>
<linearGradient id="paint0_linear_40_117" x1="7" y1="8" x2="14.5" y2="8" gradientUnits="userSpaceOnUse">
<stop offset="0.9999"/>
<stop offset="1" stop-color="#D9D9D9" stop-opacity="0"/>
</linearGradient>
</defs>
</svg>
