<svg width="26" height="37" viewBox="0 0 26 37" fill="none" xmlns="http://www.w3.org/2000/svg">
<path d="M0 37L4.5 0H22L26 37L13 32.5L0 37Z" fill="#F2BC57"/>
<path d="M12.8098 2.58541C12.8697 2.40115 13.1303 2.40115 13.1902 2.58541L14.3022 6.0077C14.329 6.09011 14.4057 6.1459 14.4924 6.1459H18.0908C18.2845 6.1459 18.3651 6.39382 18.2084 6.5077L15.2972 8.62279C15.2271 8.67372 15.1978 8.764 15.2245 8.8464L16.3365 12.2687C16.3964 12.453 16.1855 12.6062 16.0287 12.4923L13.1176 10.3772C13.0475 10.3263 12.9525 10.3263 12.8824 10.3772L9.97127 12.4923C9.81453 12.6062 9.60363 12.453 9.6635 12.2687L10.7755 8.8464C10.8022 8.764 10.7729 8.67372 10.7028 8.62279L7.79164 6.5077C7.6349 6.39382 7.71545 6.1459 7.9092 6.1459H11.5076C11.5943 6.1459 11.671 6.09011 11.6978 6.0077L12.8098 2.58541Z" fill="url(#paint0_linear_40_129)"/>
<path d="M5.46 24.48V23.62L8.82 18.8H10.2V23.49H11.13V24.48H10.2V26H9.08V24.48H5.46ZM9.13 19.96L6.77 23.49H9.13V19.96ZM12.6846 26.07C12.4779 26.07 12.3046 26 12.1646 25.86C12.0246 25.72 11.9546 25.5467 11.9546 25.34C11.9546 25.1333 12.0246 24.96 12.1646 24.82C12.3046 24.68 12.4779 24.61 12.6846 24.61C12.8846 24.61 13.0546 24.68 13.1946 24.82C13.3346 24.96 13.4046 25.1333 13.4046 25.34C13.4046 25.5467 13.3346 25.72 13.1946 25.86C13.0546 26 12.8846 26.07 12.6846 26.07ZM14.4867 22.26C14.4867 21.1067 14.6801 20.2067 15.0667 19.56C15.4601 18.9067 16.1334 18.58 17.0867 18.58C18.0401 18.58 18.7101 18.9067 19.0967 19.56C19.4901 20.2067 19.6867 21.1067 19.6867 22.26C19.6867 23.4267 19.4901 24.34 19.0967 25C18.7101 25.6533 18.0401 25.98 17.0867 25.98C16.1334 25.98 15.4601 25.6533 15.0667 25C14.6801 24.34 14.4867 23.4267 14.4867 22.26ZM18.5667 22.26C18.5667 21.72 18.5301 21.2633 18.4567 20.89C18.3901 20.5167 18.2501 20.2133 18.0367 19.98C17.8234 19.74 17.5067 19.62 17.0867 19.62C16.6667 19.62 16.3501 19.74 16.1367 19.98C15.9234 20.2133 15.7801 20.5167 15.7067 20.89C15.6401 21.2633 15.6067 21.72 15.6067 22.26C15.6067 22.82 15.6401 23.29 15.7067 23.67C15.7734 24.05 15.9134 24.3567 16.1267 24.59C16.3467 24.8233 16.6667 24.94 17.0867 24.94C17.5067 24.94 17.8234 24.8233 18.0367 24.59C18.2567 24.3567 18.4001 24.05 18.4667 23.67C18.5334 23.29 18.5667 22.82 18.5667 22.26Z" fill="#3F3F3F"/>
<defs>
<linearGradient id="paint0_linear_40_129" x1="7" y1="8" x2="14.5" y2="8" gradientUnits="userSpaceOnUse">
<stop offset="0.9999"/>
<stop offset="1" stop-color="#D9D9D9" stop-opacity="0"/>
</linearGradient>
</defs>
</svg>
